<?xml version="1.0" encoding="utf-8"?>
<!-- Generator: Adobe Illustrator 16.0.0, SVG Export Plug-In . SVG Version: 6.00 Build 0)  -->
<!DOCTYPE svg PUBLIC "-//W3C//DTD SVG 1.1//EN" "http://www.w3.org/Graphics/SVG/1.1/DTD/svg11.dtd">
<svg version="1.1" id="Layer_1" xmlns="http://www.w3.org/2000/svg" xmlns:xlink="http://www.w3.org/1999/xlink" x="0px" y="0px"
	 width="300px" height="116px" viewBox="0 0 300 116" enable-background="new 0 0 300 116" xml:space="preserve">
<g>
	<path fill="#5686B3" d="M101.928,80.956h14.804l-0.01,10.55h-27.15l0.047-47.92h12.347L101.928,80.956z"/>
	<path fill="#5686B3" d="M137.862,83.179l-3.284,8.327h-13.103l18.315-47.92h13.481l17.844,47.92h-13.166l-3.08-8.327H137.862z
		 M146.516,58.394h-0.127l-5.116,15.255h10.268L146.516,58.394z"/>
	<path fill="#5686B3" d="M218.613,64.954c-0.127,6.537-0.609,12.124-4.631,17.711c-4.438,6.122-11.09,8.794-18.641,8.794
		c-14.199,0-24.072-9.565-24.059-23.653c0.016-14.56,9.969-24.128,24.525-24.128c9.285,0,16.471,4.159,20.359,12.539l-11.15,4.637
		c-1.611-4.28-5.023-7.132-9.758-7.132c-7.727,0-11.75,7.309-11.756,14.144c-0.006,6.954,4.182,14.028,11.908,14.028
		c5.092,0,8.99-2.618,9.473-7.788h-9.586l0.01-9.151H218.613z"/>
	<path fill="#5686B3" d="M235.895,54.138l-0.006,8.008h15.926l-0.01,10.548h-15.926l-0.01,8.263h15.908l-0.01,10.55h-28.256
		l0.049-47.92h28.256l-0.012,10.552H235.895z"/>
	<path fill="#5686B3" d="M256.633,43.586h18.184c13.229,0,24.117,10.486,24.102,23.96c-0.014,13.475-10.984,23.96-24.148,23.96
		h-18.186L256.633,43.586z M268.943,80.956h3.443c7.369,0,13.672-4.067,13.682-13.41c0.008-8.579-5.594-13.408-13.531-13.408h-3.566
		L268.943,80.956z"/>
	<g>
		<path fill="#919299" d="M7.328,101.944c0,0.569-0.078,1.091-0.234,1.566c-0.156,0.476-0.38,0.886-0.671,1.229
			c-0.291,0.345-0.641,0.613-1.051,0.807c-0.41,0.192-0.869,0.289-1.376,0.289c-0.525,0-0.995-0.097-1.41-0.289
			c-0.415-0.193-0.767-0.462-1.054-0.807c-0.288-0.344-0.507-0.754-0.66-1.229c-0.152-0.476-0.229-0.997-0.229-1.566
			c0-0.573,0.079-1.098,0.237-1.575c0.158-0.478,0.382-0.889,0.671-1.232c0.289-0.345,0.64-0.613,1.051-0.806
			c0.412-0.193,0.873-0.29,1.384-0.29c0.522,0,0.989,0.097,1.402,0.29c0.414,0.192,0.764,0.461,1.051,0.806
			c0.288,0.344,0.507,0.755,0.66,1.232C7.252,100.847,7.328,101.371,7.328,101.944z M6.459,101.944c0-0.506-0.063-0.951-0.189-1.337
			c-0.127-0.386-0.301-0.707-0.523-0.966c-0.223-0.258-0.484-0.454-0.787-0.587c-0.302-0.133-0.626-0.199-0.974-0.199
			c-0.347,0-0.671,0.066-0.973,0.199c-0.302,0.133-0.564,0.329-0.787,0.587c-0.222,0.259-0.397,0.58-0.523,0.966
			s-0.19,0.831-0.19,1.337c0,0.505,0.064,0.95,0.193,1.334s0.304,0.704,0.526,0.963c0.222,0.258,0.484,0.453,0.787,0.584
			c0.302,0.131,0.628,0.196,0.979,0.196c0.347,0,0.669-0.065,0.968-0.196s0.559-0.326,0.781-0.584
			c0.222-0.259,0.396-0.579,0.523-0.963C6.396,102.895,6.459,102.449,6.459,101.944z"/>
		<path fill="#919299" d="M12.161,101.81c0.222,0.033,0.421,0.096,0.598,0.186c0.177,0.09,0.329,0.204,0.456,0.345
			s0.225,0.308,0.292,0.5s0.102,0.413,0.102,0.66c0,0.176-0.025,0.36-0.074,0.553c-0.05,0.193-0.132,0.38-0.247,0.562
			c-0.115,0.182-0.265,0.35-0.451,0.503c-0.186,0.153-0.417,0.278-0.692,0.376c-0.212,0.075-0.448,0.127-0.706,0.157
			c-0.258,0.03-0.567,0.045-0.929,0.045H8.674v-7.514h1.771c0.163,0,0.311,0.003,0.443,0.009c0.133,0.006,0.255,0.014,0.366,0.025
			c0.111,0.011,0.215,0.025,0.31,0.042c0.096,0.017,0.186,0.036,0.271,0.059c0.223,0.063,0.425,0.151,0.607,0.262
			s0.336,0.242,0.464,0.396s0.226,0.327,0.294,0.522c0.069,0.194,0.104,0.406,0.104,0.634c0,0.184-0.021,0.36-0.062,0.528
			c-0.041,0.169-0.107,0.324-0.198,0.466c-0.091,0.143-0.209,0.27-0.354,0.382c-0.145,0.112-0.321,0.206-0.529,0.281V101.81z
			 M10.879,101.434c0.171,0,0.32-0.009,0.445-0.025c0.125-0.018,0.238-0.042,0.338-0.076c0.268-0.094,0.464-0.239,0.587-0.438
			c0.123-0.199,0.185-0.433,0.185-0.702c0-0.277-0.064-0.504-0.193-0.68c-0.128-0.176-0.331-0.307-0.606-0.394
			c-0.136-0.041-0.293-0.069-0.472-0.087c-0.179-0.017-0.39-0.025-0.633-0.025H9.549v2.427H10.879z M9.549,102.259v2.611h1.057
			c0.25,0,0.483-0.013,0.697-0.037c0.215-0.024,0.397-0.062,0.547-0.115c0.165-0.056,0.304-0.128,0.418-0.216
			c0.115-0.088,0.207-0.186,0.276-0.292s0.12-0.22,0.15-0.34c0.03-0.119,0.045-0.241,0.045-0.365c0-0.142-0.016-0.275-0.048-0.401
			c-0.032-0.125-0.085-0.237-0.158-0.337c-0.073-0.099-0.17-0.186-0.29-0.261c-0.12-0.075-0.27-0.133-0.448-0.174
			c-0.107-0.026-0.229-0.045-0.367-0.057c-0.138-0.011-0.309-0.017-0.513-0.017H9.549z"/>
		<path fill="#919299" d="M15.626,100.17c0,0.221,0.043,0.403,0.128,0.547c0.085,0.145,0.201,0.264,0.345,0.357
			c0.145,0.093,0.312,0.17,0.503,0.229c0.19,0.061,0.39,0.116,0.596,0.169c0.278,0.071,0.552,0.149,0.821,0.235
			c0.269,0.087,0.509,0.205,0.72,0.356c0.21,0.152,0.38,0.35,0.511,0.593s0.195,0.556,0.195,0.938c0,0.39-0.07,0.726-0.211,1.009
			c-0.141,0.282-0.336,0.515-0.585,0.696c-0.249,0.182-0.543,0.316-0.883,0.404s-0.712,0.132-1.116,0.132
			c-0.186,0-0.376-0.013-0.571-0.037c-0.195-0.024-0.381-0.057-0.558-0.098c-0.177-0.041-0.337-0.088-0.48-0.141
			c-0.144-0.053-0.256-0.104-0.338-0.157v-0.837c0.129,0.067,0.274,0.129,0.435,0.186c0.161,0.056,0.328,0.104,0.499,0.144
			c0.172,0.039,0.345,0.069,0.521,0.092s0.34,0.034,0.494,0.034c0.25,0,0.489-0.022,0.716-0.067c0.228-0.045,0.427-0.12,0.599-0.225
			c0.171-0.104,0.307-0.248,0.408-0.43c0.1-0.182,0.15-0.409,0.15-0.683c0-0.225-0.044-0.409-0.131-0.556
			c-0.088-0.146-0.205-0.267-0.352-0.362c-0.146-0.096-0.315-0.173-0.507-0.232c-0.191-0.061-0.393-0.116-0.604-0.169
			c-0.279-0.067-0.552-0.144-0.818-0.228c-0.266-0.084-0.504-0.201-0.713-0.351c-0.209-0.149-0.377-0.343-0.504-0.578
			c-0.127-0.236-0.19-0.538-0.19-0.904c0-0.382,0.067-0.711,0.2-0.985c0.133-0.275,0.314-0.503,0.542-0.683
			c0.228-0.18,0.49-0.312,0.787-0.398c0.297-0.087,0.613-0.13,0.949-0.13c0.383,0,0.74,0.039,1.07,0.115
			c0.331,0.077,0.634,0.177,0.91,0.301v0.848c-0.297-0.131-0.604-0.237-0.92-0.32c-0.316-0.082-0.655-0.125-1.017-0.129
			c-0.271,0-0.508,0.031-0.708,0.093s-0.367,0.149-0.499,0.264s-0.23,0.253-0.295,0.416S15.626,99.972,15.626,100.17z"/>
		<path fill="#919299" d="M21.602,104.87h3.68v0.825h-4.555v-7.514h4.356v0.825h-3.481v2.427h3.095v0.825h-3.095V104.87z"/>
		<path fill="#919299" d="M27.395,102.584v3.111h-0.875v-7.514h1.859c0.314,0,0.582,0.013,0.801,0.037
			c0.22,0.023,0.42,0.062,0.603,0.114c0.5,0.143,0.882,0.385,1.146,0.728c0.265,0.343,0.396,0.771,0.396,1.283
			c0,0.304-0.046,0.574-0.139,0.814c-0.093,0.239-0.224,0.447-0.392,0.623c-0.168,0.176-0.37,0.32-0.604,0.433
			c-0.234,0.112-0.494,0.194-0.78,0.247v0.022l2.125,3.212h-0.875l-2.21-3.111H27.395z M27.395,99.007v2.752h0.864
			c0.268,0,0.497-0.009,0.687-0.028c0.189-0.019,0.359-0.052,0.51-0.101c0.304-0.098,0.538-0.253,0.703-0.466
			c0.165-0.214,0.247-0.493,0.247-0.837c-0.003-0.322-0.082-0.581-0.236-0.778c-0.154-0.196-0.367-0.338-0.638-0.424
			c-0.129-0.041-0.283-0.071-0.461-0.09c-0.179-0.019-0.406-0.028-0.682-0.028H27.395z"/>
		<path fill="#919299" d="M35.178,104.527c0.259-0.82,0.539-1.647,0.837-2.482l1.378-3.863h0.875l-2.722,7.514h-0.763l-2.722-7.514
			h0.875l1.378,3.863c0.303,0.835,0.583,1.662,0.843,2.482H35.178z"/>
		<path fill="#919299" d="M37.849,105.695l2.924-7.514h0.756l2.924,7.514h-0.95l-0.857-2.263h-3.001l-0.857,2.263H37.849z
			 M41.143,99.35c-0.32,0.936-0.626,1.785-0.917,2.55l-0.269,0.707h2.379l-0.272-0.707c-0.294-0.777-0.594-1.628-0.899-2.55H41.143z
			"/>
		<path fill="#919299" d="M47.274,105.695H46.4v-6.688h-2.398v-0.825h5.671v0.825h-2.398V105.695z"/>
		<path fill="#919299" d="M56.683,101.944c0,0.569-0.078,1.091-0.234,1.566c-0.156,0.476-0.38,0.886-0.671,1.229
			c-0.291,0.345-0.641,0.613-1.051,0.807c-0.41,0.192-0.869,0.289-1.376,0.289c-0.525,0-0.995-0.097-1.41-0.289
			c-0.415-0.193-0.767-0.462-1.054-0.807c-0.288-0.344-0.507-0.754-0.66-1.229c-0.152-0.476-0.229-0.997-0.229-1.566
			c0-0.573,0.079-1.098,0.237-1.575c0.158-0.478,0.382-0.889,0.671-1.232c0.289-0.345,0.64-0.613,1.051-0.806
			c0.412-0.193,0.873-0.29,1.384-0.29c0.522,0,0.989,0.097,1.402,0.29c0.414,0.192,0.764,0.461,1.051,0.806
			c0.288,0.344,0.507,0.755,0.66,1.232C56.607,100.847,56.683,101.371,56.683,101.944z M55.814,101.944
			c0-0.506-0.063-0.951-0.189-1.337c-0.127-0.386-0.301-0.707-0.523-0.966c-0.223-0.258-0.484-0.454-0.787-0.587
			c-0.302-0.133-0.626-0.199-0.974-0.199c-0.347,0-0.671,0.066-0.973,0.199c-0.302,0.133-0.564,0.329-0.787,0.587
			c-0.222,0.259-0.397,0.58-0.523,0.966s-0.19,0.831-0.19,1.337c0,0.505,0.064,0.95,0.193,1.334s0.304,0.704,0.526,0.963
			c0.222,0.258,0.484,0.453,0.787,0.584c0.302,0.131,0.628,0.196,0.979,0.196c0.347,0,0.669-0.065,0.968-0.196
			s0.559-0.326,0.781-0.584c0.222-0.259,0.396-0.579,0.523-0.963C55.751,102.895,55.814,102.449,55.814,101.944z"/>
		<path fill="#919299" d="M58.904,102.584v3.111h-0.875v-7.514h1.859c0.314,0,0.582,0.013,0.801,0.037
			c0.22,0.023,0.42,0.062,0.603,0.114c0.5,0.143,0.882,0.385,1.146,0.728c0.265,0.343,0.396,0.771,0.396,1.283
			c0,0.304-0.046,0.574-0.139,0.814c-0.093,0.239-0.224,0.447-0.392,0.623c-0.168,0.176-0.37,0.32-0.604,0.433
			c-0.234,0.112-0.494,0.194-0.78,0.247v0.022l2.125,3.212h-0.875l-2.21-3.111H58.904z M58.904,99.007v2.752h0.864
			c0.268,0,0.497-0.009,0.687-0.028c0.189-0.019,0.359-0.052,0.51-0.101c0.304-0.098,0.538-0.253,0.703-0.466
			c0.165-0.214,0.247-0.493,0.247-0.837c-0.003-0.322-0.082-0.581-0.236-0.778c-0.154-0.196-0.367-0.338-0.638-0.424
			c-0.129-0.041-0.283-0.071-0.461-0.09c-0.179-0.019-0.406-0.028-0.682-0.028H58.904z"/>
		<path fill="#919299" d="M64.268,105.695v-7.514h0.875v7.514H64.268z"/>
		<path fill="#919299" d="M73.118,101.944c0,0.569-0.078,1.091-0.234,1.566c-0.156,0.476-0.38,0.886-0.671,1.229
			c-0.291,0.345-0.641,0.613-1.051,0.807c-0.41,0.192-0.869,0.289-1.376,0.289c-0.525,0-0.995-0.097-1.41-0.289
			c-0.415-0.193-0.767-0.462-1.054-0.807c-0.288-0.344-0.507-0.754-0.66-1.229c-0.152-0.476-0.229-0.997-0.229-1.566
			c0-0.573,0.079-1.098,0.237-1.575c0.158-0.478,0.382-0.889,0.671-1.232c0.289-0.345,0.64-0.613,1.051-0.806
			c0.412-0.193,0.873-0.29,1.384-0.29c0.522,0,0.989,0.097,1.402,0.29c0.414,0.192,0.764,0.461,1.051,0.806
			c0.288,0.344,0.507,0.755,0.66,1.232C73.042,100.847,73.118,101.371,73.118,101.944z M72.249,101.944
			c0-0.506-0.063-0.951-0.189-1.337c-0.127-0.386-0.301-0.707-0.523-0.966c-0.223-0.258-0.484-0.454-0.787-0.587
			c-0.302-0.133-0.626-0.199-0.974-0.199c-0.347,0-0.671,0.066-0.973,0.199c-0.302,0.133-0.564,0.329-0.787,0.587
			c-0.222,0.259-0.397,0.58-0.523,0.966s-0.19,0.831-0.19,1.337c0,0.505,0.064,0.95,0.193,1.334s0.304,0.704,0.526,0.963
			c0.222,0.258,0.484,0.453,0.787,0.584c0.302,0.131,0.628,0.196,0.979,0.196c0.347,0,0.669-0.065,0.968-0.196
			s0.559-0.326,0.781-0.584c0.222-0.259,0.396-0.579,0.523-0.963C72.186,102.895,72.249,102.449,72.249,101.944z"/>
		<path fill="#919299" d="M77.275,98.182v6.688h3.503v0.825H76.4v-7.514H77.275z"/>
		<path fill="#919299" d="M81.131,105.695l2.924-7.514h0.756l2.924,7.514h-0.95l-0.857-2.263h-3.001l-0.857,2.263H81.131z
			 M84.425,99.35c-0.32,0.936-0.626,1.785-0.917,2.55l-0.269,0.707h2.379l-0.272-0.707c-0.294-0.777-0.594-1.628-0.899-2.55H84.425z
			"/>
		<path fill="#919299" d="M90.556,105.695h-0.875v-6.688h-2.398v-0.825h5.671v0.825h-2.398V105.695z"/>
		<path fill="#919299" d="M93.817,105.695v-7.514h0.875v7.514H93.817z"/>
		<path fill="#919299" d="M99.938,102.371c0.44,0.662,0.875,1.344,1.304,2.044h0.032c-0.047-0.73-0.07-1.475-0.07-2.235v-3.998h0.88
			v7.514h-0.875l-2.816-4.189c-0.487-0.729-0.921-1.411-1.304-2.044h-0.032c0.046,0.686,0.07,1.484,0.07,2.398v3.835h-0.875v-7.514
			h0.869L99.938,102.371z"/>
		<path fill="#919299" d="M110.055,101.944c0,0.569-0.078,1.091-0.234,1.566c-0.156,0.476-0.38,0.886-0.671,1.229
			c-0.291,0.345-0.641,0.613-1.051,0.807c-0.41,0.192-0.869,0.289-1.376,0.289c-0.525,0-0.995-0.097-1.41-0.289
			c-0.415-0.193-0.767-0.462-1.054-0.807c-0.288-0.344-0.507-0.754-0.66-1.229c-0.152-0.476-0.229-0.997-0.229-1.566
			c0-0.573,0.079-1.098,0.237-1.575c0.158-0.478,0.382-0.889,0.671-1.232c0.289-0.345,0.64-0.613,1.051-0.806
			c0.412-0.193,0.873-0.29,1.384-0.29c0.522,0,0.989,0.097,1.402,0.29c0.414,0.192,0.764,0.461,1.051,0.806
			c0.288,0.344,0.507,0.755,0.66,1.232C109.979,100.847,110.055,101.371,110.055,101.944z M109.186,101.944
			c0-0.506-0.063-0.951-0.189-1.337c-0.127-0.386-0.301-0.707-0.523-0.966c-0.223-0.258-0.484-0.454-0.787-0.587
			c-0.302-0.133-0.626-0.199-0.974-0.199c-0.347,0-0.671,0.066-0.973,0.199c-0.302,0.133-0.564,0.329-0.787,0.587
			c-0.222,0.259-0.397,0.58-0.523,0.966s-0.19,0.831-0.19,1.337c0,0.505,0.064,0.95,0.193,1.334s0.304,0.704,0.526,0.963
			c0.222,0.258,0.484,0.453,0.787,0.584c0.302,0.131,0.628,0.196,0.979,0.196c0.347,0,0.669-0.065,0.968-0.196
			s0.559-0.326,0.781-0.584c0.222-0.259,0.396-0.579,0.523-0.963C109.123,102.895,109.186,102.449,109.186,101.944z"/>
		<path fill="#919299" d="M110.569,105.695l2.924-7.514h0.756l2.924,7.514h-0.95l-0.857-2.263h-3.001l-0.857,2.263H110.569z
			 M113.863,99.35c-0.32,0.936-0.626,1.785-0.917,2.55l-0.269,0.707h2.379l-0.272-0.707c-0.294-0.777-0.594-1.628-0.899-2.55
			H113.863z"/>
		<path fill="#919299" d="M121.813,105.695h-0.402l-1.808-4.486c-0.25-0.618-0.501-1.29-0.751-2.017h-0.043
			c0.05,1.045,0.075,2.001,0.075,2.87v3.633h-0.875v-7.514h1.261l1.69,4.251c0.193,0.486,0.406,1.072,0.638,1.758h0.027
			c0.257-0.76,0.47-1.346,0.639-1.758l1.69-4.251h1.26v7.514h-0.874v-3.633c0-0.851,0.025-1.807,0.075-2.87h-0.042
			c-0.265,0.768-0.515,1.439-0.751,2.017L121.813,105.695z"/>
		<path fill="#919299" d="M127.649,104.87h3.68v0.825h-4.555v-7.514h4.356v0.825h-3.481v2.427h3.095v0.825h-3.095V104.87z"/>
		<path fill="#919299" d="M133.442,102.584v3.111h-0.875v-7.514h1.859c0.314,0,0.582,0.013,0.801,0.037
			c0.22,0.023,0.42,0.062,0.603,0.114c0.5,0.143,0.882,0.385,1.146,0.728c0.265,0.343,0.396,0.771,0.396,1.283
			c0,0.304-0.046,0.574-0.139,0.814c-0.093,0.239-0.224,0.447-0.392,0.623c-0.168,0.176-0.37,0.32-0.604,0.433
			c-0.234,0.112-0.494,0.194-0.78,0.247v0.022l2.125,3.212h-0.875l-2.21-3.111H133.442z M133.442,99.007v2.752h0.864
			c0.268,0,0.497-0.009,0.687-0.028c0.189-0.019,0.359-0.052,0.51-0.101c0.304-0.098,0.538-0.253,0.703-0.466
			c0.165-0.214,0.247-0.493,0.247-0.837c-0.003-0.322-0.082-0.581-0.236-0.778c-0.154-0.196-0.367-0.338-0.638-0.424
			c-0.129-0.041-0.283-0.071-0.461-0.09c-0.179-0.019-0.406-0.028-0.682-0.028H133.442z"/>
		<path fill="#919299" d="M138.806,105.695v-7.514h0.875v7.514H138.806z"/>
		<path fill="#919299" d="M144.709,98.855c-0.402,0-0.778,0.066-1.127,0.199c-0.35,0.133-0.653,0.332-0.91,0.596
			c-0.257,0.264-0.46,0.592-0.608,0.982c-0.148,0.392-0.223,0.848-0.223,1.367c0,0.517,0.069,0.965,0.207,1.346
			c0.138,0.38,0.333,0.694,0.586,0.943s0.559,0.433,0.915,0.553c0.357,0.12,0.754,0.18,1.192,0.18c0.12,0,0.247-0.007,0.38-0.02
			c0.134-0.014,0.269-0.032,0.404-0.057c0.136-0.024,0.268-0.052,0.396-0.084c0.129-0.031,0.244-0.066,0.345-0.104v0.809
			c-0.211,0.086-0.456,0.152-0.735,0.199c-0.279,0.047-0.565,0.07-0.858,0.07c-0.598,0-1.127-0.087-1.588-0.262
			c-0.461-0.174-0.848-0.424-1.161-0.749c-0.313-0.326-0.55-0.724-0.711-1.193c-0.161-0.47-0.242-1.003-0.242-1.598
			c0-0.584,0.085-1.121,0.255-1.612c0.17-0.49,0.415-0.911,0.735-1.263c0.32-0.353,0.708-0.626,1.164-0.823
			c0.456-0.196,0.968-0.295,1.537-0.295c0.15,0,0.298,0.007,0.445,0.021c0.146,0.013,0.287,0.031,0.421,0.056
			s0.258,0.054,0.373,0.087c0.114,0.034,0.212,0.069,0.295,0.106v0.809c-0.217-0.074-0.455-0.137-0.711-0.188
			C145.229,98.881,144.97,98.855,144.709,98.855z"/>
		<path fill="#919299" d="M146.729,105.695l2.924-7.514h0.756l2.923,7.514h-0.949l-0.857-2.263h-3.001l-0.857,2.263H146.729z
			 M150.022,99.35c-0.32,0.936-0.626,1.785-0.917,2.55l-0.269,0.707h2.379l-0.272-0.707c-0.294-0.777-0.594-1.628-0.899-2.55
			H150.022z"/>
		<path fill="#919299" d="M157.854,102.371c0.439,0.662,0.874,1.344,1.304,2.044h0.032c-0.047-0.73-0.07-1.475-0.07-2.235v-3.998
			h0.88v7.514h-0.874l-2.816-4.189c-0.486-0.729-0.921-1.411-1.304-2.044h-0.032c0.046,0.686,0.069,1.484,0.069,2.398v3.835h-0.874
			v-7.514h0.869L157.854,102.371z"/>
		<path fill="#919299" d="M167.971,101.944c0,0.569-0.078,1.091-0.234,1.566c-0.155,0.476-0.379,0.886-0.67,1.229
			c-0.291,0.345-0.642,0.613-1.052,0.807c-0.409,0.192-0.868,0.289-1.375,0.289c-0.525,0-0.996-0.097-1.411-0.289
			c-0.415-0.193-0.766-0.462-1.054-0.807c-0.287-0.344-0.507-0.754-0.659-1.229c-0.153-0.476-0.229-0.997-0.229-1.566
			c0-0.573,0.079-1.098,0.237-1.575c0.157-0.478,0.381-0.889,0.67-1.232c0.29-0.345,0.64-0.613,1.052-0.806
			c0.411-0.193,0.872-0.29,1.384-0.29c0.521,0,0.988,0.097,1.402,0.29c0.413,0.192,0.764,0.461,1.051,0.806
			c0.287,0.344,0.508,0.755,0.66,1.232S167.971,101.371,167.971,101.944z M167.102,101.944c0-0.506-0.063-0.951-0.189-1.337
			c-0.127-0.386-0.301-0.707-0.523-0.966c-0.223-0.258-0.484-0.454-0.786-0.587c-0.303-0.133-0.627-0.199-0.974-0.199
			c-0.348,0-0.672,0.066-0.974,0.199s-0.564,0.329-0.787,0.587c-0.222,0.259-0.396,0.58-0.522,0.966
			c-0.127,0.386-0.19,0.831-0.19,1.337c0,0.505,0.064,0.95,0.192,1.334c0.129,0.384,0.304,0.704,0.526,0.963
			c0.223,0.258,0.484,0.453,0.786,0.584s0.629,0.196,0.979,0.196c0.347,0,0.67-0.065,0.968-0.196
			c0.299-0.131,0.559-0.326,0.781-0.584c0.223-0.259,0.396-0.579,0.523-0.963C167.038,102.895,167.102,102.449,167.102,101.944z"/>
		<path fill="#919299" d="M177.068,101.905c0,0.438-0.052,0.85-0.155,1.235c-0.104,0.386-0.261,0.732-0.47,1.041
			c-0.209,0.31-0.471,0.576-0.783,0.801c-0.313,0.225-0.679,0.398-1.098,0.521c-0.239,0.071-0.498,0.121-0.777,0.149
			s-0.581,0.042-0.907,0.042h-1.625v-7.514h1.642c0.325,0,0.628,0.015,0.906,0.042c0.279,0.028,0.538,0.078,0.778,0.149
			c0.418,0.123,0.784,0.296,1.097,0.517c0.313,0.221,0.572,0.481,0.778,0.783c0.205,0.301,0.359,0.64,0.461,1.017
			C177.018,101.065,177.068,101.471,177.068,101.905z M176.199,101.905c0-0.723-0.152-1.309-0.457-1.758
			c-0.304-0.449-0.741-0.768-1.31-0.955c-0.218-0.071-0.461-0.119-0.729-0.146c-0.269-0.026-0.571-0.04-0.908-0.04h-0.669v5.863
			h0.669c0.337,0,0.64-0.014,0.908-0.04c0.268-0.025,0.511-0.074,0.729-0.146c0.568-0.188,1.006-0.515,1.31-0.982
			C176.047,103.233,176.199,102.635,176.199,101.905z"/>
		<path fill="#919299" d="M179.234,104.87h3.681v0.825h-4.555v-7.514h4.356v0.825h-3.482v2.427h3.096v0.825h-3.096V104.87z"/>
		<path fill="#919299" d="M190.354,102.657h-1.637v-0.825h2.511v3.633c-0.075,0.041-0.185,0.084-0.33,0.127
			c-0.145,0.043-0.31,0.083-0.496,0.12c-0.186,0.038-0.385,0.067-0.598,0.09s-0.423,0.034-0.631,0.034
			c-0.615,0-1.158-0.088-1.628-0.265c-0.471-0.176-0.865-0.425-1.183-0.746c-0.318-0.322-0.561-0.714-0.725-1.174
			c-0.165-0.461-0.247-0.974-0.247-1.539c0-0.613,0.091-1.172,0.271-1.673c0.181-0.502,0.441-0.931,0.783-1.286
			s0.755-0.63,1.24-0.822c0.484-0.193,1.019-0.29,1.602-0.29c0.157,0,0.314,0.007,0.472,0.021c0.157,0.013,0.308,0.031,0.45,0.056
			c0.144,0.024,0.275,0.054,0.397,0.087c0.121,0.034,0.224,0.069,0.306,0.106v0.809c-0.215-0.074-0.461-0.137-0.74-0.188
			s-0.558-0.076-0.837-0.076c-0.408,0-0.797,0.064-1.167,0.194c-0.37,0.129-0.696,0.324-0.979,0.586
			c-0.283,0.263-0.509,0.591-0.677,0.986c-0.168,0.395-0.252,0.858-0.252,1.39c0,0.521,0.07,0.97,0.209,1.348
			c0.14,0.378,0.338,0.69,0.593,0.938c0.256,0.247,0.565,0.43,0.93,0.548s0.77,0.177,1.215,0.177c0.207,0,0.41-0.012,0.611-0.034
			s0.38-0.054,0.536-0.095V102.657z"/>
		<path fill="#919299" d="M193.609,104.87h3.681v0.825h-4.555v-7.514h4.356v0.825h-3.482v2.427h3.096v0.825h-3.096V104.87z"/>
		<path fill="#919299" d="M199.226,100.17c0,0.221,0.043,0.403,0.128,0.547c0.086,0.145,0.201,0.264,0.346,0.357
			c0.145,0.093,0.312,0.17,0.503,0.229c0.19,0.061,0.39,0.116,0.597,0.169c0.277,0.071,0.552,0.149,0.82,0.235
			c0.27,0.087,0.51,0.205,0.72,0.356c0.211,0.152,0.381,0.35,0.511,0.593c0.131,0.243,0.195,0.556,0.195,0.938
			c0,0.39-0.07,0.726-0.211,1.009c-0.141,0.282-0.336,0.515-0.585,0.696s-0.543,0.316-0.883,0.404s-0.712,0.132-1.116,0.132
			c-0.186,0-0.376-0.013-0.571-0.037c-0.194-0.024-0.381-0.057-0.558-0.098s-0.337-0.088-0.48-0.141
			c-0.143-0.053-0.256-0.104-0.338-0.157v-0.837c0.129,0.067,0.273,0.129,0.435,0.186c0.161,0.056,0.327,0.104,0.499,0.144
			c0.172,0.039,0.345,0.069,0.521,0.092c0.175,0.022,0.34,0.034,0.493,0.034c0.251,0,0.489-0.022,0.717-0.067
			c0.227-0.045,0.426-0.12,0.598-0.225s0.308-0.248,0.408-0.43c0.1-0.182,0.15-0.409,0.15-0.683c0-0.225-0.044-0.409-0.132-0.556
			c-0.088-0.146-0.205-0.267-0.352-0.362s-0.315-0.173-0.507-0.232c-0.191-0.061-0.393-0.116-0.604-0.169
			c-0.279-0.067-0.552-0.144-0.818-0.228s-0.504-0.201-0.713-0.351c-0.21-0.149-0.378-0.343-0.505-0.578
			c-0.127-0.236-0.19-0.538-0.19-0.904c0-0.382,0.066-0.711,0.2-0.985c0.134-0.275,0.314-0.503,0.542-0.683s0.49-0.312,0.787-0.398
			c0.297-0.087,0.613-0.13,0.949-0.13c0.383,0,0.739,0.039,1.07,0.115c0.331,0.077,0.634,0.177,0.909,0.301v0.848
			c-0.297-0.131-0.604-0.237-0.92-0.32c-0.316-0.082-0.655-0.125-1.017-0.129c-0.271,0-0.508,0.031-0.708,0.093
			s-0.366,0.149-0.499,0.264c-0.132,0.114-0.23,0.253-0.295,0.416S199.226,99.972,199.226,100.17z"/>
		<path fill="#919299" d="M206.902,105.695h-0.875v-6.688h-2.397v-0.825h5.67v0.825h-2.397V105.695z"/>
		<path fill="#919299" d="M210.163,105.695v-7.514h0.874v7.514H210.163z"/>
		<path fill="#919299" d="M219.014,101.944c0,0.569-0.078,1.091-0.234,1.566c-0.155,0.476-0.379,0.886-0.67,1.229
			c-0.291,0.345-0.642,0.613-1.052,0.807c-0.409,0.192-0.868,0.289-1.375,0.289c-0.525,0-0.996-0.097-1.411-0.289
			c-0.415-0.193-0.766-0.462-1.054-0.807c-0.287-0.344-0.507-0.754-0.659-1.229c-0.153-0.476-0.229-0.997-0.229-1.566
			c0-0.573,0.079-1.098,0.237-1.575c0.157-0.478,0.381-0.889,0.67-1.232c0.29-0.345,0.64-0.613,1.052-0.806
			c0.411-0.193,0.872-0.29,1.384-0.29c0.521,0,0.988,0.097,1.402,0.29c0.413,0.192,0.764,0.461,1.051,0.806
			c0.287,0.344,0.508,0.755,0.66,1.232S219.014,101.371,219.014,101.944z M218.145,101.944c0-0.506-0.063-0.951-0.189-1.337
			c-0.127-0.386-0.301-0.707-0.523-0.966c-0.223-0.258-0.484-0.454-0.786-0.587c-0.303-0.133-0.627-0.199-0.974-0.199
			c-0.348,0-0.672,0.066-0.974,0.199s-0.564,0.329-0.787,0.587c-0.222,0.259-0.396,0.58-0.522,0.966
			c-0.127,0.386-0.19,0.831-0.19,1.337c0,0.505,0.064,0.95,0.192,1.334c0.129,0.384,0.304,0.704,0.526,0.963
			c0.223,0.258,0.484,0.453,0.786,0.584s0.629,0.196,0.979,0.196c0.347,0,0.67-0.065,0.968-0.196
			c0.299-0.131,0.559-0.326,0.781-0.584c0.223-0.259,0.396-0.579,0.523-0.963C218.081,102.895,218.145,102.449,218.145,101.944z
			 M216.997,96.396l-0.972,1.387h-0.745l0.783-1.387H216.997z"/>
		<path fill="#919299" d="M224.046,102.371c0.439,0.662,0.874,1.344,1.304,2.044h0.032c-0.047-0.73-0.07-1.475-0.07-2.235v-3.998
			h0.88v7.514h-0.874l-2.816-4.189c-0.486-0.729-0.921-1.411-1.304-2.044h-0.032c0.046,0.686,0.069,1.484,0.069,2.398v3.835h-0.874
			v-7.514h0.869L224.046,102.371z"/>
		<path fill="#919299" d="M231.266,102.674v3.021h-0.875v-3.021l-2.612-4.492h0.955l2.081,3.65h0.027l2.081-3.65h0.955
			L231.266,102.674z"/>
		<path fill="#919299" d="M242.492,101.905c0,0.438-0.052,0.85-0.155,1.235c-0.104,0.386-0.261,0.732-0.47,1.041
			c-0.209,0.31-0.471,0.576-0.783,0.801c-0.313,0.225-0.679,0.398-1.098,0.521c-0.239,0.071-0.498,0.121-0.777,0.149
			s-0.581,0.042-0.907,0.042h-1.625v-7.514h1.642c0.325,0,0.628,0.015,0.906,0.042c0.279,0.028,0.538,0.078,0.778,0.149
			c0.418,0.123,0.784,0.296,1.097,0.517c0.313,0.221,0.572,0.481,0.778,0.783c0.205,0.301,0.359,0.64,0.461,1.017
			C242.441,101.065,242.492,101.471,242.492,101.905z M241.623,101.905c0-0.723-0.152-1.309-0.457-1.758
			c-0.304-0.449-0.741-0.768-1.31-0.955c-0.218-0.071-0.461-0.119-0.729-0.146c-0.269-0.026-0.571-0.04-0.908-0.04h-0.669v5.863
			h0.669c0.337,0,0.64-0.014,0.908-0.04c0.268-0.025,0.511-0.074,0.729-0.146c0.568-0.188,1.006-0.515,1.31-0.982
			C241.471,103.233,241.623,102.635,241.623,101.905z"/>
		<path fill="#919299" d="M244.658,104.87h3.681v0.825h-4.555v-7.514h4.356v0.825h-3.482v2.427h3.096v0.825h-3.096V104.87z"/>
		<path fill="#919299" d="M250.274,100.17c0,0.221,0.043,0.403,0.128,0.547c0.086,0.145,0.201,0.264,0.346,0.357
			c0.145,0.093,0.312,0.17,0.503,0.229c0.19,0.061,0.39,0.116,0.597,0.169c0.277,0.071,0.552,0.149,0.82,0.235
			c0.27,0.087,0.51,0.205,0.72,0.356c0.211,0.152,0.381,0.35,0.511,0.593c0.131,0.243,0.195,0.556,0.195,0.938
			c0,0.39-0.07,0.726-0.211,1.009c-0.141,0.282-0.336,0.515-0.585,0.696s-0.543,0.316-0.883,0.404s-0.712,0.132-1.116,0.132
			c-0.186,0-0.376-0.013-0.571-0.037c-0.194-0.024-0.381-0.057-0.558-0.098s-0.337-0.088-0.48-0.141
			c-0.143-0.053-0.256-0.104-0.338-0.157v-0.837c0.129,0.067,0.273,0.129,0.435,0.186c0.161,0.056,0.327,0.104,0.499,0.144
			c0.172,0.039,0.345,0.069,0.521,0.092c0.175,0.022,0.34,0.034,0.493,0.034c0.251,0,0.489-0.022,0.717-0.067
			c0.227-0.045,0.426-0.12,0.598-0.225s0.308-0.248,0.408-0.43c0.1-0.182,0.15-0.409,0.15-0.683c0-0.225-0.044-0.409-0.132-0.556
			c-0.088-0.146-0.205-0.267-0.352-0.362s-0.315-0.173-0.507-0.232c-0.191-0.061-0.393-0.116-0.604-0.169
			c-0.279-0.067-0.552-0.144-0.818-0.228s-0.504-0.201-0.713-0.351c-0.21-0.149-0.378-0.343-0.505-0.578
			c-0.127-0.236-0.19-0.538-0.19-0.904c0-0.382,0.066-0.711,0.2-0.985c0.134-0.275,0.314-0.503,0.542-0.683s0.49-0.312,0.787-0.398
			c0.297-0.087,0.613-0.13,0.949-0.13c0.383,0,0.739,0.039,1.07,0.115c0.331,0.077,0.634,0.177,0.909,0.301v0.848
			c-0.297-0.131-0.604-0.237-0.92-0.32c-0.316-0.082-0.655-0.125-1.017-0.129c-0.271,0-0.508,0.031-0.708,0.093
			s-0.366,0.149-0.499,0.264c-0.132,0.114-0.23,0.253-0.295,0.416S250.274,99.972,250.274,100.17z"/>
		<path fill="#919299" d="M254.651,105.695l2.924-7.514h0.757l2.924,7.514h-0.95l-0.856-2.263h-3.002l-0.856,2.263H254.651z
			 M257.945,99.35c-0.32,0.936-0.626,1.785-0.917,2.55l-0.269,0.707h2.379l-0.271-0.707c-0.295-0.777-0.595-1.628-0.9-2.55H257.945z
			"/>
		<path fill="#919299" d="M262.966,102.584v3.111h-0.874v-7.514h1.859c0.314,0,0.581,0.013,0.801,0.037
			c0.22,0.023,0.421,0.062,0.604,0.114c0.5,0.143,0.882,0.385,1.146,0.728s0.396,0.771,0.396,1.283c0,0.304-0.047,0.574-0.14,0.814
			c-0.093,0.239-0.224,0.447-0.392,0.623s-0.369,0.32-0.604,0.433s-0.494,0.194-0.78,0.247v0.022l2.124,3.212h-0.874l-2.21-3.111
			H262.966z M262.966,99.007v2.752h0.864c0.268,0,0.497-0.009,0.687-0.028c0.189-0.019,0.359-0.052,0.51-0.101
			c0.304-0.098,0.538-0.253,0.703-0.466c0.164-0.214,0.246-0.493,0.246-0.837c-0.003-0.322-0.082-0.581-0.235-0.778
			c-0.154-0.196-0.367-0.338-0.639-0.424c-0.129-0.041-0.283-0.071-0.462-0.09s-0.405-0.028-0.681-0.028H262.966z"/>
		<path fill="#919299" d="M269.204,102.584v3.111h-0.874v-7.514h1.859c0.314,0,0.581,0.013,0.801,0.037
			c0.22,0.023,0.421,0.062,0.604,0.114c0.5,0.143,0.882,0.385,1.146,0.728s0.396,0.771,0.396,1.283c0,0.304-0.047,0.574-0.14,0.814
			c-0.093,0.239-0.224,0.447-0.392,0.623s-0.369,0.32-0.604,0.433s-0.494,0.194-0.78,0.247v0.022l2.124,3.212h-0.874l-2.21-3.111
			H269.204z M269.204,99.007v2.752h0.864c0.268,0,0.497-0.009,0.687-0.028c0.189-0.019,0.359-0.052,0.51-0.101
			c0.304-0.098,0.538-0.253,0.703-0.466c0.164-0.214,0.246-0.493,0.246-0.837c-0.003-0.322-0.082-0.581-0.235-0.778
			c-0.154-0.196-0.367-0.338-0.639-0.424c-0.129-0.041-0.283-0.071-0.462-0.09s-0.405-0.028-0.681-0.028H269.204z"/>
		<path fill="#919299" d="M280.984,101.944c0,0.569-0.078,1.091-0.234,1.566c-0.155,0.476-0.379,0.886-0.67,1.229
			c-0.291,0.345-0.642,0.613-1.052,0.807c-0.409,0.192-0.868,0.289-1.375,0.289c-0.525,0-0.996-0.097-1.411-0.289
			c-0.415-0.193-0.766-0.462-1.054-0.807c-0.287-0.344-0.507-0.754-0.659-1.229c-0.153-0.476-0.229-0.997-0.229-1.566
			c0-0.573,0.079-1.098,0.237-1.575c0.157-0.478,0.381-0.889,0.67-1.232c0.29-0.345,0.64-0.613,1.052-0.806
			c0.411-0.193,0.872-0.29,1.384-0.29c0.521,0,0.988,0.097,1.402,0.29c0.413,0.192,0.764,0.461,1.051,0.806
			c0.287,0.344,0.508,0.755,0.66,1.232S280.984,101.371,280.984,101.944z M280.115,101.944c0-0.506-0.063-0.951-0.189-1.337
			c-0.127-0.386-0.301-0.707-0.523-0.966c-0.223-0.258-0.484-0.454-0.786-0.587c-0.303-0.133-0.627-0.199-0.974-0.199
			c-0.348,0-0.672,0.066-0.974,0.199s-0.564,0.329-0.787,0.587c-0.222,0.259-0.396,0.58-0.522,0.966
			c-0.127,0.386-0.19,0.831-0.19,1.337c0,0.505,0.064,0.95,0.192,1.334c0.129,0.384,0.304,0.704,0.526,0.963
			c0.223,0.258,0.484,0.453,0.786,0.584s0.629,0.196,0.979,0.196c0.347,0,0.67-0.065,0.968-0.196
			c0.299-0.131,0.559-0.326,0.781-0.584c0.223-0.259,0.396-0.579,0.523-0.963C280.052,102.895,280.115,102.449,280.115,101.944z"/>
		<path fill="#919299" d="M283.204,98.182v6.688h3.504v0.825h-4.378v-7.514H283.204z"/>
		<path fill="#919299" d="M288.66,98.182v6.688h3.504v0.825h-4.378v-7.514H288.66z"/>
		<path fill="#919299" d="M299.228,101.944c0,0.569-0.078,1.091-0.234,1.566c-0.155,0.476-0.379,0.886-0.67,1.229
			c-0.291,0.345-0.642,0.613-1.052,0.807c-0.409,0.192-0.868,0.289-1.375,0.289c-0.525,0-0.996-0.097-1.411-0.289
			c-0.415-0.193-0.766-0.462-1.054-0.807c-0.287-0.344-0.507-0.754-0.659-1.229c-0.153-0.476-0.229-0.997-0.229-1.566
			c0-0.573,0.079-1.098,0.237-1.575c0.157-0.478,0.381-0.889,0.67-1.232c0.29-0.345,0.64-0.613,1.052-0.806
			c0.411-0.193,0.872-0.29,1.384-0.29c0.521,0,0.988,0.097,1.402,0.29c0.413,0.192,0.764,0.461,1.051,0.806
			c0.287,0.344,0.508,0.755,0.66,1.232S299.228,101.371,299.228,101.944z M298.358,101.944c0-0.506-0.063-0.951-0.189-1.337
			c-0.127-0.386-0.301-0.707-0.523-0.966c-0.223-0.258-0.484-0.454-0.786-0.587c-0.303-0.133-0.627-0.199-0.974-0.199
			c-0.348,0-0.672,0.066-0.974,0.199s-0.564,0.329-0.787,0.587c-0.222,0.259-0.396,0.58-0.522,0.966
			c-0.127,0.386-0.19,0.831-0.19,1.337c0,0.505,0.064,0.95,0.192,1.334c0.129,0.384,0.304,0.704,0.526,0.963
			c0.223,0.258,0.484,0.453,0.786,0.584s0.629,0.196,0.979,0.196c0.347,0,0.67-0.065,0.968-0.196
			c0.299-0.131,0.559-0.326,0.781-0.584c0.223-0.259,0.396-0.579,0.523-0.963C298.295,102.895,298.358,102.449,298.358,101.944z"/>
	</g>
	<g>
		<path fill="#119ED9" d="M35.827,53.544c0.185,0.185,0.484,0.188,0.674,0.008l8.073-7.759c0.19-0.18,0.191-0.476,0.009-0.66
			l-0.479-0.479c-0.184-0.185-0.484-0.188-0.672-0.008l-8.073,7.758c-0.189,0.182-0.192,0.478-0.008,0.661L35.827,53.544z"/>
		<polygon fill="#119ED9" points="48.885,50.879 43.861,46.121 36.873,52.718 41.987,57.622 		"/>
	</g>
	<g>
		<path fill="#119ED9" d="M60.351,43.678c-4.761,0-9.383,1.32-13.31,3.678l2.731,2.586c0.255,0.242,0.4,0.576,0.403,0.928
			s-0.138,0.688-0.389,0.934l-6.898,6.743c-0.25,0.244-0.576,0.367-0.902,0.367c-0.322,0-0.644-0.12-0.893-0.359l-2.58-2.474
			c-1.724,3.115-2.721,6.702-2.725,10.631c-0.014,14.487,10.274,24.696,24.516,24.696c14.239,0,24.548-10.209,24.562-24.696
			C84.881,53.177,73.121,43.678,60.351,43.678z M60.316,80.136c-7.515,0-12.943-5.388-12.936-13.031
			c0.007-7.143,6.222-12.154,12.96-12.154c6.737,0,12.942,5.012,12.935,12.154C73.268,74.748,67.83,80.136,60.316,80.136z"/>
	</g>
	<g>
		<path fill="#119ED9" d="M33.954,109.673c0.595,1.847,2.012,2.744,3.141,3.325c-0.464,0.286-1.081,0.443-1.755,0.443
			c-0.812,0-1.46-0.224-1.765-0.414c-1.814-1.133-4.552-3.133-5.759-4.502h-2.995c0.054,0.129,0.11,0.257,0.173,0.388
			c1.184,2.457,6.609,5.9,7.226,6.284c0.817,0.51,1.954,0.803,3.12,0.803c0.829,0,2.018-0.148,3.114-0.836
			c0.975-0.241,2.072-0.736,2.287-1.739c0.067-0.314,0.128-1.111-0.765-1.764c-0.38-0.281-0.814-0.494-1.272-0.72
			c-1.011-0.497-1.965-0.965-2.315-2.053c-0.041-0.125-0.083-0.245-0.125-0.363h-2.77C33.657,108.868,33.815,109.247,33.954,109.673
			z"/>
		<path fill="#119ED9" d="M37.16,91.944c0-0.628,0.199-1.247,0.33-1.473c1.005-0.564,1.512-2.02,1.379-3.136
			c0.091-0.145,0.303-0.386,0.45-0.553c0.312-0.354,0.665-0.755,0.902-1.23c0.099-0.196,0.162-0.412,0.206-0.638
			c-0.907-1.013-1.73-2.103-2.465-3.265c-0.101,0.462-0.074,0.998-0.044,1.581c0.02,0.371,0.051,0.986,0,1.207
			c-0.1,0.179-0.321,0.431-0.519,0.654c-0.536,0.607-1.271,1.442-1.073,2.533c0.037,0.198-0.059,0.508-0.147,0.641
			c-1.155,0.608-1.577,2.51-1.577,3.678c0,0.229-0.108,0.601-1.043,1.193c-0.28,0.179-0.492,0.427-0.634,0.715h3.613
			C36.894,93.348,37.16,92.716,37.16,91.944z"/>
		<path fill="#119ED9" d="M73.556,26.718c-0.7-0.362-1.249-0.61-1.689-0.809c-0.96-0.433-1.397-0.631-2.277-1.468
			c-1.206-1.148-2.658-1.229-4.062-1.306c-0.885-0.049-1.8-0.099-2.75-0.407c-2.746-0.891-5.778-1.908-7.443-2.707
			c-0.544-0.261-1.004-0.487-1.141-0.624c-0.094-0.094-0.214-0.39-0.397-0.839c-0.055-0.131-0.112-0.276-0.179-0.435
			c-0.817-1.961-1.882-4.214-3.579-6.058c-1.9-2.066-6.091-2.185-6.786-2.189c-0.127-0.014-0.945-0.13-1.727-0.775
			c-0.368-0.303-0.626-0.675-0.899-1.069c-0.476-0.685-1.067-1.536-2.248-1.815L38.044,6.14c-0.039-0.01-0.075-0.017-0.106-0.024
			c-0.109-0.113-0.27-0.271-0.521-0.481L37.308,5.54c-1.521-1.291-2.997-2.438-4.298-2.339c-0.499,0.039-0.909,0.19-1.238,0.312
			c-0.33,0.122-0.569,0.21-0.894,0.21c-0.165,0-0.341-0.022-0.542-0.067c-0.572-0.13-1.04-0.19-1.453-0.244
			c-0.766-0.101-1.319-0.172-2.325-0.655c-0.299-0.144-0.592-0.29-0.881-0.436c-1.513-0.757-3.076-1.538-4.705-1.466
			c-1.33,0.062-2.004,0.649-2.449,1.038c-0.278,0.244-0.413,0.354-0.679,0.428c-1.667,0.464-3.503,2.428-4.107,3.234
			c-0.823-0.207-2.223-0.525-3.228-0.579C10.29,4.964,10.125,4.96,10,4.96c-0.359,0-0.6,0.038-0.851,0.14
			C9.081,5.106,8.921,5.116,8.596,5.116c-1.087,0-2.815-0.558-3.389-0.771C4.998,4.267,4.77,4.244,4.549,4.281L1.565,4.778
			c-0.372,0.062-0.698,0.285-0.891,0.61S0.443,6.107,0.568,6.463c0.071,0.205,0.764,2.024,2.918,2.774
			c1.567,0.546,3.794,1.518,3.816,1.527c0.084,0.037,0.172,0.064,0.262,0.083c0.076,0.015,1.87,0.371,3.009,0.447
			c0.405,0.026,0.503,0.082,0.504,0.082c0.003,0.004,0.086,0.083,0.214,0.467c0.345,1.035,0.368,2.855,0.125,3.26
			c-0.198,0.321-0.88,0.94-1.428,1.438C9.284,17.18,8.557,17.839,8.07,18.49c-0.913,1.218-2.344,3.531-1.666,5.335
			c0.173,0.464,0.392,0.862,0.612,1.193c-1,0.979-1.764,2.16-1.307,3.255c0.028,0.064,0.04,0.105,0.045,0.125
			c-0.004,0.027-0.012,0.055-0.017,0.081c-0.054,0.242-0.142,0.647-0.035,1.236c0.175,0.962,0.912,1.319,1.352,1.533
			c0.419,0.204,0.895,0.435,1.45,1.329c0.601,0.97,1.276,2.266,1.93,3.52c0.695,1.336,1.354,2.598,1.866,3.349
			c0.222,0.323,0.245,0.547,0.286,0.953c0.071,0.696,0.169,1.65,1.311,2.733c0.815,0.775,2.259,1.65,3.786,2.576
			c1.341,0.812,2.727,1.653,3.411,2.275l0.137,0.124c1.229,1.115,1.277,1.158,1.58,4.86c0.352,4.288-0.094,9.266-0.278,10.673
			c-0.227,1.738-0.229,5.235-0.003,7.336c0.201,1.873,0.201,1.873-0.261,3.916c-0.489,2.167-1.125,4.785-1.131,4.812
			c-0.096,0.395,0.001,0.81,0.26,1.119c0.216,0.26,0.982,1.401,0.798,2.251c-0.084,0.39-0.195,0.67-0.303,0.941
			c-0.379,0.953-0.588,1.758,0.179,3.419c0.751,1.624,1.448,5.112,1.35,6.152c-0.128,0.085-0.245,0.172-0.353,0.265h2.891
			c0.061-0.667,0.002-1.607-0.253-2.969c-0.313-1.683-0.841-3.498-1.312-4.52c-0.366-0.795-0.338-0.864-0.124-1.404
			c0.126-0.315,0.297-0.748,0.426-1.341c0.345-1.59-0.421-3.096-0.935-3.883c0.217-0.9,0.647-2.707,1.003-4.279
			c0.524-2.318,0.541-2.585,0.309-4.754c-0.201-1.872-0.203-5.207-0.004-6.73c0.207-1.583,0.663-6.681,0.292-11.213
			C25,48.343,24.72,47.82,22.95,46.214l-0.135-0.122c-0.867-0.789-2.295-1.654-3.806-2.57c-1.345-0.815-2.734-1.658-3.352-2.243
			c-0.454-0.432-0.474-0.624-0.526-1.14c-0.055-0.538-0.131-1.275-0.72-2.138c-0.428-0.624-1.05-1.819-1.709-3.085
			c-0.675-1.295-1.372-2.636-2.025-3.687c-0.907-1.462-1.843-1.958-2.432-2.245c0.075-0.361,0.128-0.791-0.064-1.395
			c0.215-0.342,0.837-0.977,1.415-1.43c0.307-0.239,0.492-0.601,0.496-0.989c0.005-0.389-0.163-0.754-0.464-1
			c-0.005-0.005-0.539-0.467-0.83-1.243c-0.1-0.267,0.185-1.392,1.317-2.904c0.341-0.454,0.977-1.03,1.59-1.587
			c0.771-0.701,1.5-1.361,1.889-1.993c0.881-1.434,0.516-4.229,0.123-5.408c-0.51-1.522-1.371-2.187-2.975-2.292
			C9.931,8.688,8.614,8.444,8.196,8.364C7.701,8.149,5.928,7.391,4.5,6.883l0.141-0.024c0.748,0.258,2.531,0.815,3.955,0.815
			c0.709,0,1.074-0.038,1.396-0.156c0.1-0.004,0.217,0.004,0.383,0.012c0.955,0.052,2.631,0.469,3.28,0.647
			c0.144,0.052,0.296,0.078,0.451,0.078c0.758,0,1.258-0.57,1.646-1.125c0.469-0.669,1.964-2.118,2.777-2.345
			c0.836-0.232,1.321-0.656,1.676-0.966c0.333-0.291,0.445-0.39,0.882-0.41c0.035-0.001,0.067-0.002,0.102-0.002
			c0.943,0,2.108,0.583,3.342,1.2c0.303,0.151,0.608,0.305,0.919,0.454c1.376,0.66,2.253,0.774,3.102,0.886
			c0.393,0.051,0.763,0.1,1.218,0.202c0.389,0.088,0.75,0.131,1.108,0.131c0.78,0,1.356-0.213,1.778-0.367
			c0.21-0.078,0.379-0.14,0.518-0.158c0.551,0.1,1.999,1.329,2.479,1.736l0.112,0.095c0.232,0.196,0.33,0.303,0.4,0.38
			c0.427,0.465,0.739,0.537,1.308,0.667l0.317,0.073c0.205,0.049,0.372,0.266,0.733,0.785c0.327,0.471,0.734,1.058,1.374,1.585
			c1.489,1.228,3.057,1.348,3.23,1.356c0.022,0.002,0.046,0.002,0.069,0.002c1.435,0.003,4.05,0.376,4.957,1.364
			c1.425,1.547,2.332,3.466,3.101,5.31c0.063,0.152,0.12,0.291,0.172,0.418c0.665,1.628,0.953,1.916,2.8,2.801
			c1.801,0.865,4.934,1.918,7.762,2.834c1.265,0.412,2.398,0.474,3.397,0.528c1.224,0.067,1.94,0.129,2.439,0.604
			c1.195,1.137,1.947,1.477,2.989,1.946c0.435,0.196,0.928,0.419,1.568,0.75c1.32,0.682,1.535,1.379,1.049,3.395
			c-0.276,1.145-1.711,2.795-2.758,3.999c-0.525,0.604-1.021,1.176-1.373,1.668c-1.24,1.736-1.498,3.7-1.509,3.783
			c-0.003,0.028-0.006,0.059-0.008,0.089c-0.012,0.231-0.03,0.521-0.056,0.85c0.849,0.232,1.685,0.503,2.503,0.812
			c0.059-0.706,0.091-1.236,0.104-1.464c0.036-0.227,0.269-1.494,1.046-2.582c0.282-0.394,0.739-0.92,1.223-1.477
			c1.354-1.559,2.891-3.326,3.313-5.076C76.455,30.765,76.593,28.284,73.556,26.718z M14.746,5.88
			c0.078,0.049,0.15,0.106,0.218,0.172C14.897,5.986,14.824,5.929,14.746,5.88z"/>
	</g>
</g>
</svg>
